<svg width="91" height="18" viewBox="0 0 91 18" fill="none" xmlns="http://www.w3.org/2000/svg">
<path d="M10.4516 12.5594C10.4516 13.5073 10.2219 14.3313 9.7625 15.0313C9.30312 15.7313 8.63229 16.2708 7.75 16.65C6.875 17.0292 5.81042 17.2187 4.55625 17.2187C4.00208 17.2187 3.45885 17.1823 2.92656 17.1094C2.40156 17.0365 1.89479 16.9307 1.40625 16.7922C0.925 16.6464 0.465625 16.4677 0.028125 16.2563V13.1063C0.786458 13.4417 1.57396 13.7443 2.39062 14.0141C3.20729 14.2839 4.01667 14.4188 4.81875 14.4188C5.37292 14.4188 5.81771 14.3458 6.15312 14.2C6.49583 14.0542 6.74375 13.8536 6.89687 13.5984C7.05 13.3432 7.12656 13.0516 7.12656 12.7234C7.12656 12.3224 6.99167 11.9797 6.72187 11.6953C6.45208 11.4109 6.08021 11.1448 5.60625 10.8969C5.13958 10.649 4.61094 10.3828 4.02031 10.0984C3.64844 9.92344 3.24375 9.71198 2.80625 9.46406C2.36875 9.20885 1.95312 8.89896 1.55937 8.53438C1.16562 8.16979 0.841146 7.72865 0.585937 7.21094C0.338021 6.68594 0.214062 6.05885 0.214062 5.32969C0.214062 4.37448 0.432812 3.55781 0.870312 2.87969C1.30781 2.20156 1.93125 1.68385 2.74062 1.32656C3.55729 0.961979 4.51979 0.779688 5.62812 0.779688C6.45937 0.779688 7.25052 0.878125 8.00156 1.075C8.7599 1.26458 9.55104 1.54167 10.375 1.90625L9.28125 4.54219C8.54479 4.24323 7.8849 4.01354 7.30156 3.85313C6.71823 3.68542 6.12396 3.60156 5.51875 3.60156C5.09583 3.60156 4.7349 3.67083 4.43594 3.80938C4.13698 3.94063 3.91094 4.13021 3.75781 4.37813C3.60469 4.61875 3.52812 4.89948 3.52812 5.22031C3.52812 5.59948 3.6375 5.92031 3.85625 6.18281C4.08229 6.43802 4.41771 6.68594 4.8625 6.92656C5.31458 7.16719 5.87604 7.44792 6.54687 7.76875C7.36354 8.15521 8.0599 8.5599 8.63594 8.98281C9.21927 9.39844 9.66771 9.89063 9.98125 10.4594C10.2948 11.0208 10.4516 11.7208 10.4516 12.5594ZM35.2337 1.00938L31.165 17H27.3041L25.1384 8.6C25.0947 8.43958 25.0364 8.19531 24.9634 7.86719C24.8905 7.53906 24.814 7.18177 24.7337 6.79531C24.6535 6.40156 24.5806 6.03333 24.515 5.69063C24.4567 5.34063 24.4166 5.06354 24.3947 4.85938C24.3728 5.06354 24.3291 5.33698 24.2634 5.67969C24.2051 6.0224 24.1358 6.38698 24.0556 6.77344C23.9827 7.1599 23.9098 7.52083 23.8369 7.85625C23.764 8.19167 23.7056 8.44688 23.6619 8.62188L21.5072 17H17.6572L13.5775 1.00938H16.9134L18.9587 9.7375C19.0171 10 19.0827 10.3135 19.1556 10.6781C19.2358 11.0427 19.3124 11.4255 19.3853 11.8266C19.4655 12.2203 19.5348 12.6031 19.5931 12.975C19.6587 13.3396 19.7061 13.6568 19.7353 13.9266C19.7718 13.6495 19.8192 13.3286 19.8775 12.9641C19.9358 12.5922 19.9978 12.2167 20.0634 11.8375C20.1364 11.451 20.2093 11.0938 20.2822 10.7656C20.3551 10.4375 20.4207 10.1714 20.4791 9.96719L22.8087 1.00938H26.0134L28.3431 9.96719C28.3942 10.1641 28.4525 10.4302 28.5181 10.7656C28.591 11.0938 28.664 11.451 28.7369 11.8375C28.8098 12.224 28.8754 12.6031 28.9337 12.975C28.9994 13.3396 29.0468 13.6568 29.0759 13.9266C29.127 13.562 29.1962 13.1208 29.2837 12.6031C29.3785 12.0781 29.477 11.5568 29.5791 11.0391C29.6884 10.5214 29.7832 10.0875 29.8634 9.7375L31.8978 1.00938H35.2337ZM48.6956 17H39.4863V1.00938H48.6956V3.7875H42.8769V7.29844H48.2909V10.0766H42.8769V14.2H48.6956V17ZM64.0716 17L62.9122 13.1938H57.0825L55.9231 17H52.27L57.9138 0.94375H62.0591L67.7247 17H64.0716ZM62.1028 10.35L60.9434 6.63125C60.8705 6.38333 60.7721 6.06615 60.6481 5.67969C60.5315 5.28594 60.4111 4.88854 60.2872 4.4875C60.1705 4.07917 60.0757 3.72552 60.0028 3.42656C59.9299 3.72552 59.8278 4.0974 59.6966 4.54219C59.5726 4.97969 59.4523 5.39531 59.3356 5.78906C59.219 6.18281 59.1351 6.46354 59.0841 6.63125L57.9356 10.35H62.1028ZM78.1569 17H74.7662V3.83125H70.4241V1.00938H82.4991V3.83125H78.1569V17Z" fill="white"/>
<path d="M86.4672 15.4359C86.4672 14.7505 86.6531 14.2693 87.025 13.9922C87.4042 13.7151 87.8599 13.5766 88.3922 13.5766C88.9099 13.5766 89.3547 13.7151 89.7266 13.9922C90.1057 14.2693 90.2953 14.7505 90.2953 15.4359C90.2953 16.0922 90.1057 16.5661 89.7266 16.8578C89.3547 17.1495 88.9099 17.2953 88.3922 17.2953C87.8599 17.2953 87.4042 17.1495 87.025 16.8578C86.6531 16.5661 86.4672 16.0922 86.4672 15.4359Z" fill="#ABDF3B"/>
</svg>
